<svg width="346" height="79" viewBox="0 0 346 79" fill="none" xmlns="http://www.w3.org/2000/svg">
<path d="M72 78C36 80.8 9.66667 73.8333 0.5 70V0.5H345V41H269L223 48C203.8 50.4 161 62 142 67.5C128.8 72.7 89.8333 76.6667 72 78Z" fill="#BCBBC0" fill-opacity="0.75"/>
<path d="M32.5 70.5C26 69.5 8.66667 64.7645 0.5 61.2645V0.5H345.5V61C341.1 65.4 318 64.5 307.5 63.5C300.3 62.7 219.167 42.5 179.5 32.5L104 53C70.8 67.8 42.5 70.8333 32.5 70.5Z" fill="#717380" fill-opacity="0.85"/>
<path d="M82 55.5C64.4 48.7 20.3333 43.3333 0.5 41.5V0.5H345V48.5C328.2 42.9 290.667 41.5 274 42C257 42 198 49.5 172 55.5C138.4 66.7 98 60.1667 82 55.5Z" fill="#192032"/>
</svg>
