<?xml version="1.0" encoding="UTF-8"?>
<!DOCTYPE svg PUBLIC "-//W3C//DTD SVG 1.1//EN" "http://www.w3.org/Graphics/SVG/1.1/DTD/svg11.dtd">
<!-- Creator: CorelDRAW 2020 (64-Bit) -->
<svg xmlns="http://www.w3.org/2000/svg" xml:space="preserve" width="2.90711in" height="0.436917in" version="1.1" shape-rendering="geometricPrecision" text-rendering="geometricPrecision" image-rendering="optimizeQuality" fill-rule="evenodd" clip-rule="evenodd"
viewBox="0 0 778.16 116.95"
 xmlns:xlink="http://www.w3.org/1999/xlink"
 xmlns:xodm="http://www.corel.com/coreldraw/odm/2003">
 <g id="Layer_x0020_1">
  <metadata id="CorelCorpID_0Corel-Layer"/>
  <path fill="#434343" d="M30.36 73.94c-0.38,-0.37 -1.17,-1.22 -2.39,-2.53 -1.22,-1.31 -2.01,-2.16 -2.39,-2.53 -0.94,-0 -1.41,0.84 -1.41,2.53 0.38,-0 1.41,0.42 3.09,1.27 1.69,0.84 2.72,1.26 3.09,1.26zm194.26 -7.59l0 -0.84c0,-2.62 -1.12,-3.94 -3.37,-3.94 -1.12,-0 -1.69,0.28 -1.69,0.84 0,0.75 0.66,1.59 1.97,2.53 1.31,0.93 2.34,1.41 3.09,1.4zm90.81 -1.12l-0.84 0c-0.94,0 -2.34,0.61 -4.22,1.83 -1.87,1.22 -2.81,2.11 -2.81,2.67l0.84 0.28c0.75,0.19 1.41,0.28 1.97,0.28 3.19,-0 4.87,-1.22 5.06,-3.65l0 -1.41zm0.56 -30.64c0.19,-2.06 0.19,-3.37 0,-3.94 -0.75,0.37 -1.59,1.31 -2.53,2.81 0.37,0.19 1.22,0.56 2.53,1.12zm6.18 0.84c-0.56,-1.88 -1.78,-3.09 -3.65,-3.66 -0.56,1.5 -0.66,2.53 -0.28,3.09 0.56,0.37 1.87,0.56 3.94,0.56zm61.57 37.67c-0.19,-0.19 -0.8,-0.84 -1.83,-1.97 -1.03,-1.13 -1.64,-1.87 -1.83,-2.25 -0.94,-0 -1.4,0.84 -1.4,2.53 0.19,-0 1.03,0.28 2.53,0.84 1.5,0.56 2.34,0.84 2.53,0.84zm-344.95 17.15c-0.75,3 -2.53,5.25 -5.34,6.75 -5.25,2.44 -12.46,6.75 -21.65,12.93 0.94,-2.44 2.44,-4.5 4.5,-6.18 5.81,-4.12 13.31,-8.62 22.49,-13.49zm-7.03 -53.42c0,1.5 -0.66,3.28 -1.97,5.34l-0.56 -0c0.38,-2.06 -0.09,-3.09 -1.41,-3.09 -1.5,-0 -2.34,2.62 -2.53,7.87 0,3.19 0,6.47 0,9.84l-0.56 -0c0,-1.69 -0.75,-3.75 -2.25,-6.18 -1.5,-2.44 -3.09,-3.65 -4.78,-3.65 0,2.06 -1.22,3.09 -3.65,3.09 -2.44,-0 -3.65,-1.5 -3.65,-4.5 0,-2.62 1.5,-3.94 4.5,-3.94 4.5,-0 7.59,2.53 9.28,7.59 0,-3.37 0,-6.65 0,-9.84 0.38,-4.12 1.78,-6.18 4.22,-6.18 2.25,-0 3.37,1.22 3.37,3.65zm123.14 18.84c-0.56,2.44 -1.78,4.59 -3.65,6.47 0,0 -0.38,0 -1.12,0 -0.56,-0.19 -1.22,-0.28 -1.97,-0.28 -6.18,0 -12.93,1.97 -20.24,5.9 -7.31,3.94 -12.56,5.9 -15.74,5.9 -3.37,-0 -6.37,-1.5 -9,-4.5 -11.24,8.62 -25.68,12.93 -43.29,12.93 -10.87,0 -18.84,-1.12 -23.9,-3.37 -0.37,-0 -0.98,0.84 -1.83,2.53 -0.84,1.69 -1.55,2.53 -2.11,2.53 -0.75,-0 -2.25,-0.66 -4.5,-1.97 -2.81,-1.31 -4.5,-1.97 -5.06,-1.97 -1.87,4.31 -4.69,7.5 -8.43,9.56 -5.06,2.81 -9.75,4.22 -14.06,4.22l0 -1.13c11.06,-4.87 17.71,-9.93 19.96,-15.18 0,-9.19 2.16,-13.78 6.47,-13.78 -0.19,-0 1.31,0.98 4.5,2.95 3.19,1.97 6.75,3.61 10.68,4.92 5.81,1.87 12.18,2.81 19.12,2.81 7.68,0 15.74,-1.03 24.18,-3.09 10.31,-2.63 17.52,-6.09 21.65,-10.4 0.19,-0 0.47,0.28 0.84,0.84 -0.19,0.56 -0.38,1.31 -0.56,2.25 1.69,1.69 3.75,2.53 6.18,2.53 3.19,-0 9.09,-2.44 17.71,-7.31 -5.81,-2.06 -9.75,-3.09 -11.81,-3.09 -0.75,-0 -1.22,0.28 -1.41,0.84l-7.87 -0.28 0 -0.56c0,-5.25 3.09,-7.87 9.28,-7.87 1.87,-0 4.78,0.84 8.72,2.53 4.87,2.06 7.78,3.19 8.72,3.37 3.94,1.12 10.12,1.69 18.55,1.69zm-45.26 31.21c0,1.87 -0.66,4.12 -1.97,6.75 -1.87,0 -3.94,-0.56 -6.18,-1.69 -0.56,0.37 -1.41,1.78 -2.53,4.22 -4.69,-1.31 -7.03,-2.9 -7.03,-4.78 0,-0.56 0.66,-2.16 1.97,-4.78 2.06,-0 4.22,0.56 6.47,1.69 0.56,-0.94 1.69,-2.44 3.37,-4.5l5.9 3.09zm-35.7 -33.74c0.94,1.31 1.41,2.81 1.41,4.5 0,4.12 -1.5,6.18 -4.5,6.18 -3.19,-0 -4.78,-1.69 -4.78,-5.06 0,-2.44 0.75,-5.06 2.25,-7.87 1.31,-2.25 2.72,-4.5 4.22,-6.75l0.56 -0c-2.06,7.12 -3.09,10.78 -3.09,10.97 0,1.87 0.66,2.81 1.97,2.81 1.69,-0 2.25,-1.31 1.69,-3.94l0.28 -0.85zm-2.81 -40.76c-0.56,7.68 -7.22,13.21 -19.96,16.59l-1.12 -0.28c4.5,-1.69 9.09,-4.97 13.78,-9.84 0,-1.69 -1.69,-2.53 -5.06,-2.53 -3.19,-0 -6.18,0.84 -9,2.53 1.87,-4.5 3.47,-7.26 4.78,-8.29 1.31,-1.03 3.56,-1.55 6.75,-1.55 4.12,0 7.4,1.12 9.84,3.37zm71.41 70.28c-0.38,0.94 -1.64,2.06 -3.79,3.37 -2.16,1.31 -4.26,1.97 -6.33,1.97 -2.25,-0 -3.37,-0.94 -3.37,-2.81 0,-1.5 0.94,-3.19 2.81,-5.06l2.53 -2.25c-0.75,-0.56 -1.59,-0.84 -2.53,-0.84 -1.12,0 -2.25,0.09 -3.37,0.28 0.94,-2.44 2.72,-3.65 5.34,-3.65 1.12,-0 2.44,0.47 3.94,1.4 -0.38,0.75 -1.13,1.78 -2.25,3.09 -2.44,2.81 -3.65,4.5 -3.65,5.06 0,1.31 0.84,1.97 2.53,1.97 1.87,0 4.59,-0.84 8.15,-2.53zm-3.65 -69.16c0,2.06 -1.12,4.83 -3.37,8.29 -2.25,3.47 -4.87,5.95 -7.87,7.45 3.37,-4.5 5.06,-7.78 5.06,-9.84 -36.17,7.5 -66.91,18.84 -92.21,34.02 0.94,-3.75 1.87,-5.9 2.81,-6.47 9.75,-6.56 24.83,-13.4 45.26,-20.52 19.49,-6.56 36.27,-10.87 50.32,-12.93zm123.14 39.08c-1.87,1.31 -4.22,2.81 -7.03,4.5 -4.31,-0.94 -7.5,-1.41 -9.56,-1.41 -6.56,-0 -12,1.12 -16.31,3.37 0,10.12 -1.69,15.18 -5.06,15.18 -2.62,0 -5.72,-1.22 -9.28,-3.65 -0.75,2.44 -2.01,4.36 -3.79,5.76 -1.78,1.4 -3.89,2.11 -6.33,2.11 0,9.56 -5.34,17.34 -16.02,23.33 -8.25,4.69 -19.21,8.43 -32.89,11.25 -12.37,2.62 -24.18,3.94 -35.42,3.94 -35.98,-0 -61.38,-10.03 -76.19,-30.08l0.28 -1.13c19.68,14.99 45.54,22.49 77.59,22.49 20.43,-0 38.89,-2.91 55.38,-8.72 15.93,-5.44 23.89,-11.25 23.89,-17.43 0,-1.69 -0.61,-3.42 -1.83,-5.2 -1.22,-1.78 -1.83,-2.95 -1.83,-3.51 0,-0.94 0.75,-3 2.25,-6.18 3,2.44 4.97,3.65 5.9,3.65 3.56,-0 6.28,-1.78 8.15,-5.34 2.81,-5.06 4.22,-7.59 4.22,-7.59 4.31,-3.75 11.06,-6.28 20.24,-7.59 -6,-2.44 -10.03,-3.65 -12.09,-3.65 -0.56,0 -0.94,0.38 -1.12,1.13l-9 -0 0 -1.4c0,-5.62 3.37,-8.43 10.12,-8.43 2.81,-0 6.65,1.41 11.53,4.22 7.5,3.93 15.56,7.4 24.18,10.4zm-91.65 6.19c0,4.68 -1.41,9 -4.22,12.93 -2.81,3.94 -4.22,6.09 -4.22,6.47 0,5.81 -1.5,11.24 -4.5,16.3 -3.56,5.81 -8.15,8.72 -13.78,8.72 -5.06,-0 -9.84,-0.75 -14.34,-2.25l0.56 -0.84c3.94,0 7.68,-0.47 11.25,-1.41 3.56,-0.94 7.54,-3.56 11.95,-7.87 4.41,-4.31 6.61,-7.96 6.61,-10.96 0,-1.69 -0.84,-3.37 -2.53,-5.06 -1.69,-1.69 -2.53,-2.53 -2.53,-2.53 0,-0.94 0.56,-3.19 1.69,-6.75 1.69,1.12 3.56,1.69 5.62,1.69 2.62,-0 4.4,-1.03 5.34,-3.09 -0.56,-4.69 -1.97,-11.99 -4.22,-21.93 -2.06,-8.62 -3.28,-13.31 -3.65,-14.06 -2.06,-4.87 -3.09,-7.87 -3.09,-9 0,-1.5 0.75,-3.75 2.25,-6.75 1.69,1.87 4.12,4.97 7.31,9.28 -0.19,0.56 -0.56,1.5 -1.12,2.81 -0.56,1.31 -0.84,2.25 -0.84,2.81 0,-0.19 1.08,4.4 3.23,13.77 2.16,9.37 3.23,15.27 3.23,17.71zm10.68 22.77l-5.34 5.34 -5.34 -5.62 5.06 -5.34 5.62 5.62zm-28.96 -46.95c0,4.87 -1.41,7.31 -4.22,7.31 -1.5,-0 -2.72,-0.37 -3.65,-1.12 -1.5,2.25 -2.72,3.37 -3.65,3.37 -2.62,-0 -3.94,-1.59 -3.94,-4.78 0,-1.12 0.19,-2.25 0.56,-3.37l1.12 -0.56c0,2.25 0.94,3.37 2.81,3.37 1.69,-0 2.53,-1.69 2.53,-5.06l1.41 -1.41c0,2.44 0.84,3.66 2.53,3.66 1.31,-0 2.16,-1.69 2.53,-5.06l1.4 -1.13c0.38,1.5 0.56,3.09 0.56,4.78zm83.21 49.76c-0.56,3 -2.34,5.25 -5.34,6.75 -5.06,2.62 -12.28,6.93 -21.65,12.93 0.94,-2.44 2.44,-4.5 4.5,-6.18 5.81,-4.12 13.31,-8.62 22.49,-13.49zm-49.76 -20.81c0,3.19 -0.66,6.94 -1.97,11.25l-11.81 -53.69c0,-4.12 0.75,-7.03 2.25,-8.72 0.56,0.94 2.62,9.37 6.18,25.3 3.56,15.93 5.34,24.55 5.34,25.86zm23.9 -10.4c0,3.94 -0.38,7.22 -1.12,9.84l-0.56 -0c0,-8.62 -1.78,-14.71 -5.34,-18.27l0 -7.31c4.69,4.87 7.03,10.12 7.03,15.74zm45.82 27.55c-0.37,0.94 -1.64,2.06 -3.79,3.38 -2.16,1.31 -4.26,1.97 -6.33,1.97 -2.44,-0 -3.65,-0.94 -3.65,-2.81 0,-1.5 1.03,-3.19 3.09,-5.06l2.53 -2.25c-0.75,-0.56 -1.59,-0.84 -2.53,-0.84 -1.31,-0 -2.44,0.09 -3.37,0.28 0.94,-2.44 2.72,-3.65 5.34,-3.65 1.12,0 2.34,0.47 3.65,1.41 -0.19,0.56 -0.94,1.59 -2.25,3.09 -2.25,2.81 -3.37,4.5 -3.37,5.06 0,1.31 0.75,1.97 2.25,1.97 2.06,-0 4.87,-0.84 8.43,-2.53zm-60.44 -62.97c0.94,1.5 1.4,3.09 1.4,4.78 0,3.94 -1.5,5.9 -4.5,5.9 -3.19,-0 -4.78,-1.69 -4.78,-5.06 0,-2.44 0.7,-4.92 2.11,-7.45 1.41,-2.53 2.86,-4.92 4.36,-7.17l0.56 0c-2.06,7.12 -3.09,10.78 -3.09,10.96 0,1.87 0.66,2.81 1.97,2.81 1.69,-0 2.25,-1.31 1.69,-3.94l0.28 -0.85zm96.43 75.62c1.12,1.5 1.69,3.09 1.69,4.78 0,4.12 -1.5,6.18 -4.5,6.18 -3.37,-0 -5.06,-1.78 -5.06,-5.34 0,-2.44 0.75,-4.87 2.25,-7.31 1.5,-2.44 2.91,-4.87 4.22,-7.31l0.56 0.28c-2.06,7.12 -3.09,10.78 -3.09,10.96 0,1.87 0.66,2.81 1.97,2.81 1.69,-0 2.25,-1.41 1.69,-4.22l0.28 -0.85zm-38.23 -82.93c0,2.06 -1.12,4.83 -3.37,8.29 -2.25,3.47 -4.78,6.04 -7.59,7.73 3.19,-4.69 4.78,-8.06 4.78,-10.12 -19.12,3.94 -38.8,11.71 -59.04,23.34 0.94,-3.56 1.87,-5.72 2.81,-6.47 16.87,-11.43 37.67,-19.02 62.41,-22.77zm25.58 48.36c0,4.68 -1.36,9 -4.08,12.93 -2.72,3.94 -4.08,6.09 -4.08,6.47 0,5.99 -1.5,11.62 -4.5,16.87 -3.37,6.18 -7.78,9.28 -13.21,9.28 -3.19,-0 -8.15,-1.12 -14.9,-3.37l0.28 -0.84c4.12,0 8.06,-0.56 11.81,-1.69 3.19,-0.75 6.98,-3.28 11.39,-7.59 4.4,-4.31 6.61,-7.96 6.61,-10.96 0,-1.69 -0.84,-3.37 -2.53,-5.06 -1.69,-1.69 -2.53,-2.53 -2.53,-2.53 0,-0.94 0.66,-3.19 1.97,-6.75 1.5,1.12 3.28,1.69 5.34,1.69 2.81,-0 4.59,-1.03 5.34,-3.09 -0.56,-4.69 -1.97,-11.99 -4.22,-21.93 -1.87,-8.62 -3,-13.31 -3.37,-14.06 -2.25,-4.87 -3.37,-7.87 -3.37,-9 0,-1.5 0.75,-3.75 2.25,-6.75 1.69,1.87 4.03,4.97 7.03,9.28 0,0.56 -0.23,1.5 -0.7,2.81 -0.47,1.31 -0.7,2.25 -0.7,2.81 0,-0.19 1.03,4.4 3.09,13.77 2.06,9.37 3.09,15.27 3.09,17.71zm48.92 28.39c-0.56,3 -2.34,5.25 -5.34,6.75 -5.06,2.43 -12.28,6.75 -21.65,12.93 0.94,-2.44 2.44,-4.5 4.5,-6.18 5.81,-4.13 13.31,-8.62 22.49,-13.49zm-64.38 -55.38c0,5.06 -1.41,7.59 -4.22,7.59 -1.5,-0 -2.62,-0.47 -3.37,-1.41 -1.69,2.25 -3,3.37 -3.94,3.37 -2.44,-0 -3.65,-1.5 -3.65,-4.5 0,-1.31 0.19,-2.44 0.56,-3.37l0.84 -0.56c0,2.06 0.94,3.09 2.81,3.09 1.87,-0 2.81,-1.59 2.81,-4.78l1.41 -1.69c0,2.62 0.75,3.94 2.25,3.94 1.5,-0 2.44,-1.69 2.81,-5.06l1.12 -1.13c0.38,1.31 0.56,2.81 0.56,4.5zm30.64 31.77c0,3.19 -0.56,6.94 -1.69,11.25l-12.09 -53.69c0,-4.12 0.84,-7.03 2.53,-8.72 0.56,0.94 2.58,9.37 6.04,25.3 3.47,15.93 5.2,24.55 5.2,25.86zm59.88 3.65c0,9 -2.81,13.5 -8.43,13.5 -4.31,-0 -7.31,-1.87 -9,-5.62 -1.31,6.18 -4.78,9.28 -10.4,9.28 -3,0 -5.34,-1.22 -7.03,-3.66 -1.69,-2.44 -2.53,-5.15 -2.53,-8.15 -3.19,5.43 -6.37,8.15 -9.56,8.15 -3.75,-0 -5.62,-2.34 -5.62,-7.03 0,-3.38 2.39,-6.42 7.17,-9.14 4.78,-2.72 7.17,-4.26 7.17,-4.64 0.38,-1.69 0.56,-3.19 0.56,-4.5l2.53 -3.65c0.56,1.5 0.84,3.28 0.84,5.34 0,1.12 -0.14,2.76 -0.42,4.92 -0.28,2.15 -0.42,3.8 -0.42,4.92 0,5.43 2.72,8.15 8.15,8.15 5.25,-0 7.87,-2.53 7.87,-7.59 0,-1.69 -0.42,-4.36 -1.27,-8.01 -0.84,-3.66 -1.26,-6.33 -1.26,-8.01 0,-1.88 0.84,-4.5 2.53,-7.87 1.31,5.44 2.62,10.87 3.94,16.31 1.87,7.31 4.59,10.96 8.15,10.96 2.25,-0 3.37,-0.84 3.37,-2.53 0,-3 -1.12,-7.4 -3.37,-13.21 -2.25,-5.81 -3.37,-9 -3.37,-9.56 0,-1.13 0.38,-2.62 1.12,-4.5 0.75,-1.87 1.12,-3.28 1.12,-4.22 5.44,11.99 8.15,22.12 8.15,30.36zm-29.8 -32.33c-0.75,3.56 -3,4.87 -6.75,3.94 -1.5,3.37 -4.55,6.14 -9.14,8.29 -4.59,2.15 -9.14,3.23 -13.63,3.23l-0.56 -0.56c1.5,0 4.87,-1.31 10.12,-3.93 6,-2.81 9.75,-5.25 11.25,-7.31 -2.25,-0.94 -3.37,-2.16 -3.37,-3.65 0,-0.94 0.23,-2.01 0.7,-3.23 0.47,-1.22 0.61,-2.01 0.42,-2.39 -0.38,-0.19 -0.56,-0.56 -0.56,-1.13 0,-1.12 1.22,-1.69 3.65,-1.69 1.5,0 3.28,0.98 5.34,2.95 2.06,1.97 2.91,3.79 2.53,5.48zm67.47 53.41c-0.56,3 -2.34,5.16 -5.34,6.47 -5.06,2.62 -12.28,6.93 -21.65,12.93 1.12,-2.25 2.62,-4.31 4.5,-6.18 5.81,-4.12 13.31,-8.53 22.49,-13.22zm-86.59 -73.37c1.12,1.5 1.69,3.09 1.69,4.78 0,4.12 -1.5,6.18 -4.5,6.18 -3.19,-0 -4.78,-1.78 -4.78,-5.34 0,-2.44 0.7,-4.92 2.11,-7.45 1.41,-2.53 2.86,-4.92 4.36,-7.17l0.28 0.28c-1.87,7.12 -2.81,10.78 -2.81,10.96 0,1.87 0.56,2.81 1.69,2.81 1.87,0 2.53,-1.4 1.97,-4.22l0 -0.84zm39.08 15.18c0,5.06 -1.5,7.59 -4.5,7.59 -1.31,-0 -2.44,-0.47 -3.37,-1.41 -1.69,2.25 -2.9,3.37 -3.65,3.37 -2.62,0 -3.94,-1.5 -3.94,-4.5 0,-1.31 0.19,-2.44 0.56,-3.37l1.12 -0.56c0,2.06 0.94,3.09 2.81,3.09 1.69,-0 2.53,-1.59 2.53,-4.78l1.4 -1.69c0,2.63 0.84,3.94 2.53,3.94 1.31,0 2.16,-1.69 2.53,-5.06l1.12 -1.41c0.56,1.5 0.84,3.09 0.84,4.78zm22.21 33.45c0,3.19 -0.56,6.94 -1.69,11.25l-12.09 -53.69c0,-4.12 0.84,-7.03 2.53,-8.72 0.56,0.94 2.58,9.37 6.04,25.3 3.47,15.93 5.2,24.55 5.2,25.86zm-28.68 -47.79c0,4.12 -0.47,7.4 -1.4,9.84l-0.28 -0c0,-8.62 -1.87,-14.71 -5.62,-18.27l0.28 -7.31c4.69,4.87 7.03,10.12 7.03,15.74zm51.17 14.62c0,1.31 -0.66,3 -1.97,5.06l-0.56 0c0.38,-1.88 -0.09,-2.81 -1.41,-2.81 -1.5,-0 -2.25,2.53 -2.25,7.59 -0.19,3.37 -0.28,6.65 -0.28,9.84l-0.56 -0c0,-1.5 -0.7,-3.47 -2.11,-5.9 -1.41,-2.44 -3.05,-3.65 -4.92,-3.65 0,1.87 -1.22,2.81 -3.65,2.81 -2.25,-0 -3.37,-1.41 -3.37,-4.22 0,-2.62 1.5,-3.94 4.5,-3.94 4.31,-0 7.31,2.44 9,7.31 0,-3.19 0,-6.37 0,-9.56 0.38,-4.12 1.78,-6.18 4.22,-6.18 2.25,-0 3.37,1.22 3.37,3.65zm377.69 36.38c-2.43,1.41 -5.1,-1.15 -6.6,-2.65 -0.94,1.5 -1.78,3 -2.53,4.5 -1.87,2.43 -4.03,3.65 -6.47,3.65 -2.06,-0 -4.03,-0.65 -5.9,-1.97 -2.81,3 -6.18,4.5 -10.12,4.5 -3.37,-0 -7.22,-1.59 -11.53,-4.78 -19.31,6.18 -44.51,11.43 -75.62,15.74 -35.42,4.87 -71.22,7.31 -107.39,7.31 -62.79,-0 -112.64,-4.5 -149.56,-13.49 -0.38,0 -0.98,0.7 -1.83,2.11 -0.84,1.4 -1.55,2.11 -2.11,2.11 -0.75,-0 -2.39,-0.66 -4.92,-1.97 -2.53,-1.31 -4.08,-1.97 -4.64,-1.97 -1.87,4.31 -4.78,7.5 -8.72,9.56 -4.87,2.81 -9.46,4.22 -13.77,4.22l0 -1.13c11.06,-4.87 17.71,-9.93 19.96,-15.18 0,-9.19 2.06,-13.78 6.18,-13.78 1.13,-0 2.86,1.08 5.2,3.23 2.34,2.16 4.36,3.51 6.04,4.08 33.92,8.06 85.37,12.09 154.34,12.09 71.41,-0 133.82,-7.87 187.23,-23.62l0 1.69c-0.38,0.56 -1.22,1.59 -2.53,3.09 1.5,1.5 3.47,2.25 5.9,2.25 3.19,-0 7.59,-2.81 13.21,-8.43 0.19,0.66 0.38,1.31 0.56,1.97 0,0.19 -0.47,1.22 -1.41,3.09 0.94,0.94 2.06,1.41 3.37,1.41 4.12,-0 4.75,-3.37 6.63,-10.12 0.62,-0.31 1,-0.42 1.75,-0.52 0.25,1.51 0.44,3.38 0.3,4.56 4.31,-0.38 8.96,-3.07 11.87,-5.92 -2.61,-4.54 -8.28,-9.94 -12.91,-15.47 -4.5,-5.38 -2.53,-9.38 -0.92,-15.4 2.28,0.44 14.3,18.65 18.86,32.05 -1.17,3.15 -2.34,6.3 -3.5,9.44 -2.81,1.95 -5.63,3.2 -8.44,3.75zm-38.08 14.22c-1.12,5.81 -2.9,8.72 -5.34,8.72 -0.94,-0 -2.16,-0.37 -3.65,-1.12 -2.44,2.06 -4.12,3.09 -5.06,3.09 -0.37,-0 -1.03,-0.33 -1.97,-0.98 -0.94,-0.66 -1.69,-0.98 -2.25,-0.98 -2.06,-0 -6.65,2.06 -13.78,6.18 -7.87,4.5 -14.34,7.31 -19.4,8.43l-0.28 -0.84c4.87,-1.31 11.53,-4.78 19.96,-10.4 7.12,-4.87 12.28,-7.31 15.46,-7.31 0.56,-0 1.26,0.28 2.11,0.84 0.84,0.56 1.55,0.84 2.11,0.84 0.19,-0 1.69,-1.03 4.5,-3.09 0.19,0 0.61,0.19 1.26,0.56 0.66,0.37 1.27,0.56 1.83,0.56 0.75,-0 1.26,-0.61 1.55,-1.83 0.28,-1.22 1.26,-2.11 2.95,-2.67zm31.77 -0.28c-0.56,3 -2.34,5.16 -5.34,6.47 -5.06,2.62 -12.28,6.93 -21.65,12.93 0.94,-2.25 2.44,-4.31 4.5,-6.18 5.81,-4.13 13.31,-8.53 22.49,-13.22zm15.46 -4.5l-5.34 5.34 -5.62 -5.62 5.34 -5.34 5.62 5.62zm-32.33 -47.51c-0.56,7.68 -7.31,13.21 -20.24,16.59l-0.84 -0.28c4.5,-1.69 9.09,-4.96 13.78,-9.84 0,-1.69 -1.78,-2.53 -5.34,-2.53 -3,-0 -5.9,0.75 -8.72,2.25 1.87,-4.31 3.47,-6.98 4.78,-8.01 1.31,-1.03 3.56,-1.55 6.75,-1.55 3.94,-0 7.22,1.12 9.84,3.37z"/>
 </g>
</svg>
