<svg width="374" height="136" viewBox="0 0 374 136" fill="none" xmlns="http://www.w3.org/2000/svg">
<path d="M129.5 28.9586C81.5 91.9587 9.5 13.4997 1 21.4997V135H373.5V10.5C343.5 2.49999 336.167 2.9997 314.5 0.499668C284.5 -3.00019 177.5 12.4586 129.5 28.9586Z" fill="#BFBEC3" fill-opacity="0.75"/>
<path d="M130.344 30.7823C60.1545 3.7956 16.2024 13.2542 3 21.3568V134.959H373.5V13C356.253 18.9529 341.582 12.9234 335.9 9.45084C311.835 -2.45504 277.074 12.0966 262.702 20.8606L130.344 30.7823Z" fill="#686A79" fill-opacity="0.85"/>
<path d="M204.5 18.9587C82.5 40.1587 17.3333 27.792 0 18.9587V135.959H373.5V25.9587C340.7 45.1587 303.833 33.9587 289.5 25.9587C239.1 10.3587 213.5 17.9586 204.5 18.9587Z" fill="#192032"/>
</svg>
