<svg width="345" height="70" viewBox="0 0 345 70" fill="none" xmlns="http://www.w3.org/2000/svg">
<path d="M118.171 22.8236C42.4615 -1.93133 7.8447 -1.6946 0 1.51813V70H345V22.8236H118.171Z" fill="#AFB3BE" fill-opacity="0.75"/>
<path d="M24 21.1138C18 18.2621 5.5 19.9256 0 21.1138V70H345V12.4569C318.2 1.4575 291 2.27227 281 1.2538C249.537 -0.718111 194.021 9.24099 167.524 15.8849C165.845 16.3059 164.255 17.0109 162.627 17.5984C152.394 21.29 130.689 19.8896 115.05 17.9609C108.407 17.1416 101.656 17.4303 95.1929 19.1691L78.5 23.66C50.5 34.252 30.5 26.3759 24 21.1138Z" fill="#737583" fill-opacity="0.85"/>
<path d="M122 30.7426C63.6 43.9426 16.3333 29.5759 0 20.7426V70H345V13.2426C330 20.7426 327 22.2426 306 23.7426C285 25.2426 254.5 15.7426 241 9.24257C230.2 4.04257 218 9.40047 214 10.2426C207.667 11.5759 180.4 17.5426 122 30.7426Z" fill="#192032"/>
</svg>
