<svg width="374" height="98" viewBox="0 0 374 98" fill="none" xmlns="http://www.w3.org/2000/svg">
<path d="M116.5 96C62.5 101.6 16.6667 84.8333 0 76V0H374V82C369.6 76.8 320.667 54.8333 297 44.5L239 63C171.4 82.6 129.167 93.1667 116.5 96Z" fill="#BFBEC3" fill-opacity="0.75"/>
<path d="M19 82.5C7.8 87.3 2 87.3333 0 87V0H374V61C366 67.6667 345.1 81.5 325.5 83.5C305.9 85.5 249 67 223 57.5C209 56.8334 169.2 59.9 122 77.5C74.8 95.1 58.5 89.5 53 87.5C46.3333 83.8333 30.2 77.7 19 82.5Z" fill="#686A79" fill-opacity="0.85"/>
<path d="M86 69C53.6 55 15.1667 60.8334 0 65.5V0H374V73C366.833 71.6667 341.7 67.4 298.5 61C244.5 53 206 69 174.5 77C149.3 83.4 105 74.3334 86 69Z" fill="#192032"/>
</svg>
